<?xml version="1.0" standalone="no"?>
<!DOCTYPE svg PUBLIC "-//W3C//DTD SVG 20010904//EN"
 "http://www.w3.org/TR/2001/REC-SVG-20010904/DTD/svg10.dtd">
<svg version="1.0" xmlns="http://www.w3.org/2000/svg"
 width="579.000000pt" height="624.000000pt" viewBox="0 0 579.000000 624.000000"
 preserveAspectRatio="xMidYMid meet">
<metadata>
Created by potrace 1.15, written by Peter Selinger 2001-2017
</metadata>
<g transform="translate(0.000000,624.000000) scale(0.100000,-0.100000)"
fill="#14a852" stroke="white">
<path d="M2401 6205 c-25 -29 -31 -45 -31 -81 0 -85 47 -134 130 -134 101 0
162 100 115 190 -24 46 -52 60 -121 60 -58 0 -64 -2 -93 -35z"/>
<path d="M1154 6216 c-133 -60 -93 -256 53 -256 85 0 137 50 137 131 0 75 -46
127 -121 135 -21 2 -52 -2 -69 -10z"/>
<path d="M3050 5774 c-159 -69 -181 -294 -37 -391 82 -55 172 -55 254 0 144
97 121 324 -39 391 -47 20 -132 20 -178 0z"/>
<path d="M2183 5689 c-49 -14 -83 -62 -83 -116 0 -38 5 -50 34 -79 29 -29 41
-34 80 -34 36 0 52 6 79 30 96 84 14 233 -110 199z"/>
<path d="M634 5560 c-67 -27 -87 -134 -36 -190 54 -62 162 -48 196 25 20 41
20 68 1 109 -27 56 -99 81 -161 56z"/>
<path d="M3192 5104 c-24 -9 -69 -40 -101 -70 -70 -64 -109 -143 -118 -237 -5
-59 -3 -70 27 -130 30 -60 32 -72 28 -144 -2 -56 -10 -92 -28 -128 -29 -61
-109 -141 -177 -178 -69 -37 -191 -67 -273 -67 -82 0 -204 30 -273 67 -29 16
-94 69 -145 119 -101 100 -185 152 -288 179 -73 19 -222 19 -294 0 -182 -48
-331 -186 -392 -363 -32 -93 -31 -258 1 -347 33 -90 78 -156 130 -191 58 -38
132 -135 162 -211 31 -80 38 -237 14 -319 -39 -137 -129 -249 -242 -302 -55
-26 -66 -27 -208 -27 -149 0 -151 -1 -210 -32 -77 -40 -147 -112 -182 -188
-25 -54 -28 -71 -28 -165 0 -93 3 -112 27 -162 59 -127 184 -216 316 -226 l69
-4 22 -107 c141 -678 618 -1290 1257 -1609 254 -128 493 -201 789 -244 118
-17 502 -16 625 1 280 38 515 109 765 231 628 306 1089 867 1260 1534 54 210
65 312 65 589 0 215 -3 263 -24 389 -168 981 -936 1749 -1934 1933 -73 14
-144 25 -156 25 -22 0 -24 5 -28 78 -8 125 -72 228 -180 287 -46 25 -66 30
-143 32 -63 2 -103 -2 -133 -13z m498 -1490 c106 -17 242 -60 322 -100 248
-126 434 -362 522 -665 24 -83 63 -306 55 -313 -2 -2 -150 -11 -329 -20 -179
-9 -355 -19 -392 -23 l-66 -5 -7 78 c-9 101 -29 191 -56 248 -94 202 -337 258
-493 115 -128 -116 -185 -339 -186 -712 0 -506 90 -714 327 -758 66 -12 165 1
222 31 51 25 118 101 146 163 20 47 50 164 57 227 3 29 -49 29 442 0 181 -11
331 -22 333 -24 8 -7 -26 -179 -51 -266 -117 -402 -434 -680 -861 -754 -116
-20 -360 -21 -482 -1 -457 74 -805 390 -938 850 -43 151 -57 250 -62 456 -11
418 65 726 248 1004 63 95 200 236 284 292 262 176 592 236 965 177z"/>
<path d="M1025 4916 c-65 -29 -105 -94 -105 -171 0 -109 76 -185 185 -185 77
0 140 41 170 113 27 64 13 150 -33 200 -47 52 -151 72 -217 43z"/>
<path d="M2415 4921 c-54 -14 -111 -49 -148 -90 -63 -70 -72 -95 -72 -201 0
-107 16 -151 80 -215 63 -63 108 -80 210 -80 78 0 97 4 141 27 101 53 157 147
158 263 1 86 -14 131 -64 194 -51 64 -127 102 -212 107 -35 2 -76 0 -93 -5z"/>
<path d="M249 4701 c-39 -39 -41 -109 -5 -146 70 -70 181 -23 181 76 0 89
-113 133 -176 70z"/>
<path d="M115 3831 c-132 -61 -154 -230 -42 -328 89 -78 244 -47 296 59 37 77
26 165 -27 222 -59 63 -152 82 -227 47z"/>
<path d="M882 3556 c-84 -27 -151 -91 -183 -171 -20 -52 -15 -164 10 -217 26
-55 93 -120 148 -144 56 -24 167 -23 224 3 166 75 218 288 106 435 -64 84
-203 127 -305 94z"/>
</g>
</svg>
